{
    "asset" : {
        "generator" : "Khronos glTF Blender I/O v0.9.36",
        "version" : "2.0"
    },
    "scene" : 0,
    "scenes" : [
        {
            "name" : "Scene",
            "nodes" : [
                0,
                1,
                6
            ]
        }
    ],
    "nodes" : [
        {
            "name" : "Light",
            "rotation" : [
                0.16907575726509094,
                0.7558803558349609,
                -0.27217137813568115,
                0.570947527885437
            ],
            "translation" : [
                4.076245307922363,
                5.903861999511719,
                -1.0054539442062378
            ]
        },
        {
            "name" : "Camera",
            "rotation" : [
                0.483536034822464,
                0.33687159419059753,
                -0.20870360732078552,
                0.7804827094078064
            ],
            "translation" : [
                7.358891487121582,
                4.958309173583984,
                6.925790786743164
            ]
        },
        {
            "mesh" : 0,
            "name" : "cube1_cube1_auv"
        },
        {
            "mesh" : 1,
            "name" : "cube1_cube2_auv"
        },
        {
            "mesh" : 2,
            "name" : "cube1_cube3_auv"
        },
        {
            "children" : [
                2,
                3,
                4
            ],
            "name" : "cube1"
        },
        {
            "children" : [
                5
            ],
            "name" : "bakery.gltf",
            "rotation" : [
                0.003131187753751874,
                -0.32795223593711853,
                0.0010870038531720638,
                0.9446885585784912
            ],
            "scale" : [
                1.402612328529358,
                1.402612328529358,
                1.402612328529358
            ]
        }
    ],
    "materials" : [
        {
            "name" : "cube1_auv",
            "pbrMetallicRoughness" : {
                "baseColorFactor" : [
                    0.5,
                    0.5,
                    0.5,
                    1
                ],
                "baseColorTexture" : {
                    "index" : 0,
                    "texCoord" : 0
                },
                "metallicFactor" : 0,
                "roughnessFactor" : 1
            }
        },
        {
            "name" : "cube2_auv",
            "pbrMetallicRoughness" : {
                "baseColorFactor" : [
                    0.5,
                    0.5,
                    0.5,
                    1
                ],
                "baseColorTexture" : {
                    "index" : 1,
                    "texCoord" : 0
                },
                "metallicFactor" : 0,
                "roughnessFactor" : 1
            }
        },
        {
            "name" : "cube3_auv",
            "pbrMetallicRoughness" : {
                "baseColorFactor" : [
                    0.5,
                    0.5,
                    0.5,
                    1
                ],
                "baseColorTexture" : {
                    "index" : 2,
                    "texCoord" : 0
                },
                "metallicFactor" : 0,
                "roughnessFactor" : 1
            }
        }
    ],
    "meshes" : [
        {
            "name" : "Mesh_0",
            "primitives" : [
                {
                    "attributes" : {
                        "POSITION" : 0,
                        "NORMAL" : 1,
                        "TEXCOORD_0" : 2
                    },
                    "indices" : 3,
                    "material" : 0
                }
            ]
        },
        {
            "name" : "Mesh_1",
            "primitives" : [
                {
                    "attributes" : {
                        "POSITION" : 4,
                        "NORMAL" : 5,
                        "TEXCOORD_0" : 6
                    },
                    "indices" : 7,
                    "material" : 1
                }
            ]
        },
        {
            "name" : "Mesh_2",
            "primitives" : [
                {
                    "attributes" : {
                        "POSITION" : 8,
                        "NORMAL" : 9,
                        "TEXCOORD_0" : 10
                    },
                    "indices" : 11,
                    "material" : 2
                }
            ]
        }
    ],
    "textures" : [
        {
            "source" : 0
        },
        {
            "source" : 1
        },
        {
            "source" : 2
        }
    ],
    "images" : [
        {
            "bufferView" : 4,
            "mimeType" : "image/png",
            "name" : "Image_0"
        },
        {
            "bufferView" : 9,
            "mimeType" : "image/png",
            "name" : "Image_1"
        },
        {
            "bufferView" : 14,
            "mimeType" : "image/png",
            "name" : "Image_2"
        }
    ],
    "accessors" : [
        {
            "bufferView" : 0,
            "componentType" : 5126,
            "count" : 240,
            "max" : [
                1.0625312328338623,
                0.9840419888496399,
                0.8412153720855713
            ],
            "min" : [
                -0.5393533110618591,
                0.005714666564017534,
                -0.8412153720855713
            ],
            "type" : "VEC3"
        },
        {
            "bufferView" : 1,
            "componentType" : 5126,
            "count" : 240,
            "type" : "VEC3"
        },
        {
            "bufferView" : 2,
            "componentType" : 5126,
            "count" : 240,
            "type" : "VEC2"
        },
        {
            "bufferView" : 3,
            "componentType" : 5123,
            "count" : 240,
            "type" : "SCALAR"
        },
        {
            "bufferView" : 5,
            "componentType" : 5126,
            "count" : 216,
            "max" : [
                0.021558169275522232,
                0.8096609115600586,
                1.1461998224258423
            ],
            "min" : [
                -0.02155809849500656,
                0.5788193941116333,
                0.7603229880332947
            ],
            "type" : "VEC3"
        },
        {
            "bufferView" : 6,
            "componentType" : 5126,
            "count" : 216,
            "type" : "VEC3"
        },
        {
            "bufferView" : 7,
            "componentType" : 5126,
            "count" : 216,
            "type" : "VEC2"
        },
        {
            "bufferView" : 8,
            "componentType" : 5123,
            "count" : 216,
            "type" : "SCALAR"
        },
        {
            "bufferView" : 10,
            "componentType" : 5126,
            "count" : 84,
            "max" : [
                -0.1896948665380478,
                1.0771077871322632,
                -0.3708270788192749
            ],
            "min" : [
                -0.29093319177627563,
                0.6481317281723022,
                -0.47206541895866394
            ],
            "type" : "VEC3"
        },
        {
            "bufferView" : 11,
            "componentType" : 5126,
            "count" : 84,
            "type" : "VEC3"
        },
        {
            "bufferView" : 12,
            "componentType" : 5126,
            "count" : 84,
            "type" : "VEC2"
        },
        {
            "bufferView" : 13,
            "componentType" : 5123,
            "count" : 84,
            "type" : "SCALAR"
        }
    ],
    "bufferViews" : [
        {
            "buffer" : 0,
            "byteLength" : 2880,
            "byteOffset" : 0
        },
        {
            "buffer" : 0,
            "byteLength" : 2880,
            "byteOffset" : 2880
        },
        {
            "buffer" : 0,
            "byteLength" : 1920,
            "byteOffset" : 5760
        },
        {
            "buffer" : 0,
            "byteLength" : 480,
            "byteOffset" : 7680
        },
        {
            "buffer" : 0,
            "byteLength" : 339137,
            "byteOffset" : 8160
        },
        {
            "buffer" : 0,
            "byteLength" : 2592,
            "byteOffset" : 347300
        },
        {
            "buffer" : 0,
            "byteLength" : 2592,
            "byteOffset" : 349892
        },
        {
            "buffer" : 0,
            "byteLength" : 1728,
            "byteOffset" : 352484
        },
        {
            "buffer" : 0,
            "byteLength" : 432,
            "byteOffset" : 354212
        },
        {
            "buffer" : 0,
            "byteLength" : 339137,
            "byteOffset" : 354644
        },
        {
            "buffer" : 0,
            "byteLength" : 1008,
            "byteOffset" : 693784
        },
        {
            "buffer" : 0,
            "byteLength" : 1008,
            "byteOffset" : 694792
        },
        {
            "buffer" : 0,
            "byteLength" : 672,
            "byteOffset" : 695800
        },
        {
            "buffer" : 0,
            "byteLength" : 168,
            "byteOffset" : 696472
        },
        {
            "buffer" : 0,
            "byteLength" : 339137,
            "byteOffset" : 696640
        }
    ],
    "buffers" : [
        {
            "byteLength" : 1035780,
            "uri" : "data:application/octet-stream;base64,"
        }
    ]
}
