{
  "asset": {
    "version": "2.0",
    "generator": "GLTFExporter"
  },
  "scenes": [
    {
      "nodes": [
        4
      ],
      "name": "Scene"
    }
  ],
  "scene": 0,
  "nodes": [
    {
      "name": "cube1_cube1_auv",
      "extras": {
        "name": "cube1_cube1_auv"
      },
      "mesh": 0
    },
    {
      "name": "cube1_cube2_auv",
      "extras": {
        "name": "cube1_cube2_auv"
      },
      "mesh": 1
    },
    {
      "name": "cube1_cube3_auv",
      "extras": {
        "name": "cube1_cube3_auv"
      },
      "mesh": 2
    },
    {
      "name": "cube1",
      "extras": {
        "name": "cube1"
      },
      "children": [
        0,
        1,
        2
      ]
    },
    {
      "name": "bakery.gltf",
      "children": [
        3
      ]
    }
  ],
  "bufferViews": [
    {
      "buffer": 0,
      "byteOffset": 0,
      "byteLength": 2880,
      "target": 34962,
      "byteStride": 12
    },
    {
      "buffer": 0,
      "byteOffset": 2880,
      "byteLength": 2880,
      "target": 34962,
      "byteStride": 12
    },
    {
      "buffer": 0,
      "byteOffset": 5760,
      "byteLength": 1920,
      "target": 34962,
      "byteStride": 8
    },
    {
      "buffer": 0,
      "byteOffset": 7680,
      "byteLength": 480,
      "target": 34963
    },
    {
      "buffer": 0,
      "byteOffset": 8160,
      "byteLength": 2592,
      "target": 34962,
      "byteStride": 12
    },
    {
      "buffer": 0,
      "byteOffset": 10752,
      "byteLength": 2592,
      "target": 34962,
      "byteStride": 12
    },
    {
      "buffer": 0,
      "byteOffset": 13344,
      "byteLength": 1728,
      "target": 34962,
      "byteStride": 8
    },
    {
      "buffer": 0,
      "byteOffset": 15072,
      "byteLength": 432,
      "target": 34963
    },
    {
      "buffer": 0,
      "byteOffset": 15504,
      "byteLength": 1008,
      "target": 34962,
      "byteStride": 12
    },
    {
      "buffer": 0,
      "byteOffset": 16512,
      "byteLength": 1008,
      "target": 34962,
      "byteStride": 12
    },
    {
      "buffer": 0,
      "byteOffset": 17520,
      "byteLength": 672,
      "target": 34962,
      "byteStride": 8
    },
    {
      "buffer": 0,
      "byteOffset": 18192,
      "byteLength": 168,
      "target": 34963
    }
  ],
  "buffers": [
    {
      "byteLength": 18360,
      "uri": "data:application/octet-stream;base64,"
    }
  ],
  "accessors": [
    {
      "bufferView": 0,
      "componentType": 5126,
      "count": 240,
      "max": [
        1.0625312328338623,
        0.8412153720855713,
        0.9840419888496399
      ],
      "min": [
        -0.5393533110618591,
        -0.8412153720855713,
        0.005714666564017534
      ],
      "type": "VEC3"
    },
    {
      "bufferView": 1,
      "componentType": 5126,
      "count": 240,
      "max": [
        1,
        1,
        0.9945745468139648
      ],
      "min": [
        -1,
        -1,
        -1
      ],
      "type": "VEC3"
    },
    {
      "bufferView": 2,
      "componentType": 5126,
      "count": 240,
      "max": [
        0.9948973655700684,
        0.9946841597557068
      ],
      "min": [
        0.007074962370097637,
        0.009101299569010735
      ],
      "type": "VEC2"
    },
    {
      "bufferView": 3,
      "componentType": 5123,
      "count": 240,
      "max": [
        239
      ],
      "min": [
        0
      ],
      "type": "SCALAR"
    },
    {
      "bufferView": 4,
      "componentType": 5126,
      "count": 216,
      "max": [
        0.021558169275522232,
        -0.7603229880332947,
        0.8096609115600586
      ],
      "min": [
        -0.02155809849500656,
        -1.1461998224258423,
        0.5788193941116333
      ],
      "type": "VEC3"
    },
    {
      "bufferView": 5,
      "componentType": 5126,
      "count": 216,
      "max": [
        0.9987145066261292,
        0.999999463558197,
        0.9999997615814209
      ],
      "min": [
        -0.9987147450447083,
        -1,
        -0.9999995827674866
      ],
      "type": "VEC3"
    },
    {
      "bufferView": 6,
      "componentType": 5126,
      "count": 216,
      "max": [
        0.9861820936203003,
        0.9920850396156311
      ],
      "min": [
        0.6663386821746826,
        0.7129303216934204
      ],
      "type": "VEC2"
    },
    {
      "bufferView": 7,
      "componentType": 5123,
      "count": 216,
      "max": [
        215
      ],
      "min": [
        0
      ],
      "type": "SCALAR"
    },
    {
      "bufferView": 8,
      "componentType": 5126,
      "count": 84,
      "max": [
        -0.1896948665380478,
        0.47206541895866394,
        1.0771077871322632
      ],
      "min": [
        -0.29093319177627563,
        0.3708270788192749,
        0.6481317281723022
      ],
      "type": "VEC3"
    },
    {
      "bufferView": 9,
      "componentType": 5126,
      "count": 84,
      "max": [
        1,
        1,
        1
      ],
      "min": [
        -1,
        -1,
        -1
      ],
      "type": "VEC3"
    },
    {
      "bufferView": 10,
      "componentType": 5126,
      "count": 84,
      "max": [
        0.7036540508270264,
        0.5410623550415039
      ],
      "min": [
        0.014509840868413448,
        0.019565049558877945
      ],
      "type": "VEC2"
    },
    {
      "bufferView": 11,
      "componentType": 5123,
      "count": 84,
      "max": [
        83
      ],
      "min": [
        0
      ],
      "type": "SCALAR"
    }
  ],
  "materials": [
    {
      "pbrMetallicRoughness": {
        "baseColorFactor": [
          0.5,
          0.5,
          0.5,
          1
        ],
        "metallicFactor": 0,
        "roughnessFactor": 1,
        "baseColorTexture": {
          "index": 0
        }
      },
      "name": "cube1_auv"
    },
    {
      "pbrMetallicRoughness": {
        "baseColorFactor": [
          0.5,
          0.5,
          0.5,
          1
        ],
        "metallicFactor": 0,
        "roughnessFactor": 1,
        "baseColorTexture": {
          "index": 1
        }
      },
      "name": "cube2_auv"
    },
    {
      "pbrMetallicRoughness": {
        "baseColorFactor": [
          0.5,
          0.5,
          0.5,
          1
        ],
        "metallicFactor": 0,
        "roughnessFactor": 1,
        "baseColorTexture": {
          "index": 2
        }
      },
      "name": "cube3_auv"
    }
  ],
  "textures": [
    {
      "sampler": 0,
      "source": 0
    },
    {
      "sampler": 1,
      "source": 1
    },
    {
      "sampler": 2,
      "source": 2
    }
  ],
  "samplers": [
    {
      "magFilter": 9729,
      "minFilter": 9987,
      "wrapS": 33071,
      "wrapT": 33071
    },
    {
      "magFilter": 9729,
      "minFilter": 9987,
      "wrapS": 33071,
      "wrapT": 33071
    },
    {
      "magFilter": 9729,
      "minFilter": 9987,
      "wrapS": 33071,
      "wrapT": 33071
    }
  ],
  "images": [
    {
      "mimeType": "image/png",
      "uri": "data:image/png;base64,"
    },
    {
      "mimeType": "image/png",
      "uri": "data:image/png;base64,"
    },
    {
      "mimeType": "image/png",
      "uri": "data:image/png;base64,"
    }
  ],
  "meshes": [
    {
      "primitives": [
        {
          "mode": 4,
          "attributes": {
            "POSITION": 0,
            "NORMAL": 1,
            "TEXCOORD_0": 2
          },
          "indices": 3,
          "material": 0
        }
      ]
    },
    {
      "primitives": [
        {
          "mode": 4,
          "attributes": {
            "POSITION": 4,
            "NORMAL": 5,
            "TEXCOORD_0": 6
          },
          "indices": 7,
          "material": 1
        }
      ]
    },
    {
      "primitives": [
        {
          "mode": 4,
          "attributes": {
            "POSITION": 8,
            "NORMAL": 9,
            "TEXCOORD_0": 10
          },
          "indices": 11,
          "material": 2
        }
      ]
    }
  ]
}