{
  "accessors": [
    {
      "name": "something0_0_positions",
      "componentType": 5126,
      "count": 498,
      "min": [
        -5.964352607727051,
        -6.693201065063477,
        -3.732348918914795
      ],
      "max": [
        6.796379566192627,
        6.759222507476807,
        3.6227049827575684
      ],
      "type": "VEC3",
      "bufferView": 0,
      "byteOffset": 0
    },
    {
      "name": "something0_0_normals",
      "componentType": 5126,
      "count": 498,
      "min": [
        -0.9998028874397278,
        -0.9996833205223083,
        -0.9999021887779236
      ],
      "max": [
        0.999832808971405,
        0.9983838796615601,
        0.9999224543571472
      ],
      "type": "VEC3",
      "bufferView": 1,
      "byteOffset": 0
    },
    {
      "name": "something0_0_texcoords",
      "componentType": 5126,
      "count": 498,
      "min": [
        -0.0015399005496874452,
        0.025920629501342773
      ],
      "max": [
        0.9994074702262878,
        0.9990841746330261
      ],
      "type": "VEC2",
      "bufferView": 2,
      "byteOffset": 0
    },
    {
      "name": "something0_0_indices",
      "componentType": 5123,
      "count": 498,
      "min": [
        0
      ],
      "max": [
        497
      ],
      "type": "SCALAR",
      "bufferView": 3,
      "byteOffset": 0
    }
  ],
  "asset": {
    "generator": "obj2gltf",
    "version": "2.0"
  },
  "buffers": [
    {
      "name": "boat_simple",
      "byteLength": 16932,
      "uri": "data:application/octet-stream;base64,"
    }
  ],
  "bufferViews": [
    {
      "name": "bufferView_0",
      "buffer": 0,
      "byteLength": 5976,
      "byteOffset": 0,
      "byteStride": 12,
      "target": 34962
    },
    {
      "name": "bufferView_1",
      "buffer": 0,
      "byteLength": 5976,
      "byteOffset": 5976,
      "byteStride": 12,
      "target": 34962
    },
    {
      "name": "bufferView_2",
      "buffer": 0,
      "byteLength": 3984,
      "byteOffset": 11952,
      "byteStride": 8,
      "target": 34962
    },
    {
      "name": "bufferView_3",
      "buffer": 0,
      "byteLength": 996,
      "byteOffset": 15936,
      "target": 34963
    }
  ],
  "materials": [
    {
      "name": "material0",
      "pbrMetallicRoughness": {
        "baseColorFactor": [
          0.5,
          0.5,
          0.5,
          1
        ],
        "metallicFactor": 0,
        "roughnessFactor": 1
      },
      "emissiveFactor": [
        0,
        0,
        0
      ],
      "alphaMode": "OPAQUE",
      "doubleSided": false
    }
  ],
  "meshes": [
    {
      "name": "something0",
      "primitives": [
        {
          "attributes": {
            "POSITION": 0,
            "NORMAL": 1,
            "TEXCOORD_0": 2
          },
          "indices": 3,
          "material": 0,
          "mode": 4
        }
      ]
    }
  ],
  "nodes": [
    {
      "name": "something",
      "mesh": 0
    }
  ],
  "scene": 0,
  "scenes": [
    {
      "nodes": [
        0
      ]
    }
  ]
}
