{
    "asset" : {
        "generator" : "Khronos glTF Blender I/O v0.9.36",
        "version" : "2.0"
    },
    "scene" : 0,
    "scenes" : [
        {
            "name" : "Scene",
            "nodes" : [
                0,
                1,
                2
            ]
        }
    ],
    "nodes" : [
        {
            "name" : "Light",
            "rotation" : [
                0.11786535382270813,
                0.035338111221790314,
                -0.7707222104072571,
                0.6251769661903381
            ],
            "scale" : [
                0.1166824996471405,
                0.1166824996471405,
                0.1166824996471405
            ],
            "translation" : [
                0.6331778168678284,
                -0.058683037757873535,
                -0.15709173679351807
            ]
        },
        {
            "name" : "Camera",
            "rotation" : [
                0.012248946353793144,
                -0.36807265877723694,
                -0.43822771310806274,
                0.8199566602706909
            ],
            "scale" : [
                0.1166824996471405,
                0.1166824996471405,
                0.1166824996471405
            ],
            "translation" : [
                0.7265097498893738,
                0.8663914203643799,
                0.23129421472549438
            ]
        },
        {
            "mesh" : 0,
            "name" : "something",
            "rotation" : [
                0.001405917457304895,
                -0.5000348091125488,
                0.0008117834222503006,
                0.8660039305686951
            ],
            "scale" : [
                0.1166824996471405,
                0.1166825070977211,
                0.1166825070977211
            ],
            "translation" : [
                -0.20154190063476562,
                0.056398630142211914,
                -0.22443729639053345
            ]
        }
    ],
    "materials" : [
        {
            "emissiveFactor" : [
                0,
                0,
                0
            ],
            "name" : "material0",
            "pbrMetallicRoughness" : {
                "baseColorTexture" : {
                    "index" : 0,
                    "texCoord" : 0
                },
                "metallicFactor" : 0,
                "roughnessFactor" : 1
            }
        }
    ],
    "meshes" : [
        {
            "name" : "something0",
            "primitives" : [
                {
                    "attributes" : {
                        "POSITION" : 0,
                        "NORMAL" : 1,
                        "TEXCOORD_0" : 2
                    },
                    "indices" : 3,
                    "material" : 0
                }
            ]
        }
    ],
    "textures" : [
        {
            "source" : 0
        }
    ],
    "images" : [
        {
            "bufferView" : 4,
            "mimeType" : "image/png",
            "name" : "farm"
        }
    ],
    "accessors" : [
        {
            "bufferView" : 0,
            "componentType" : 5126,
            "count" : 1734,
            "max" : [
                12.0726957321167,
                13.659069061279297,
                11.045841217041016
            ],
            "min" : [
                -12.51970386505127,
                -0.13164648413658142,
                -12.245757102966309
            ],
            "type" : "VEC3"
        },
        {
            "bufferView" : 1,
            "componentType" : 5126,
            "count" : 1734,
            "type" : "VEC3"
        },
        {
            "bufferView" : 2,
            "componentType" : 5126,
            "count" : 1734,
            "type" : "VEC2"
        },
        {
            "bufferView" : 3,
            "componentType" : 5123,
            "count" : 1734,
            "type" : "SCALAR"
        }
    ],
    "bufferViews" : [
        {
            "buffer" : 0,
            "byteLength" : 20808,
            "byteOffset" : 0
        },
        {
            "buffer" : 0,
            "byteLength" : 20808,
            "byteOffset" : 20808
        },
        {
            "buffer" : 0,
            "byteLength" : 13872,
            "byteOffset" : 41616
        },
        {
            "buffer" : 0,
            "byteLength" : 3468,
            "byteOffset" : 55488
        },
        {
            "buffer" : 0,
            "byteLength" : 360906,
            "byteOffset" : 58956
        }
    ],
    "buffers" : [
        {
            "byteLength" : 419864,
            "uri" : "data:application/octet-stream;base64,"
        }
    ]
}
