{
  "asset": {
    "version": "2.0",
    "generator": "gltfeditor.com"
  },
  "buffers": [
    {
      "uri": "data:application/octet-stream;base64,",
      "byteLength": 159488
    }
  ],
  "bufferViews": [
    {
      "buffer": 0,
      "byteLength": 7488,
      "byteOffset": 0,
      "byteStride": 0,
      "target": 34962
    },
    {
      "buffer": 0,
      "byteLength": 7488,
      "byteOffset": 7488,
      "byteStride": 0,
      "target": 34962
    },
    {
      "buffer": 0,
      "byteLength": 4992,
      "byteOffset": 14976,
      "byteStride": 0,
      "target": 34962
    },
    {
      "buffer": 0,
      "byteLength": 1248,
      "byteOffset": 19968,
      "byteStride": 0,
      "target": 34963
    }
  ],
  "accessors": [
    {
      "bufferView": 0,
      "byteOffset": 0,
      "componentType": 5126,
      "count": 624,
      "max": [
        4.5,
        12,
        4.5
      ],
      "min": [
        -4.5,
        -0.03762524574995041,
        -4.5
      ],
      "type": "VEC3"
    },
    {
      "bufferView": 1,
      "byteOffset": 0,
      "componentType": 5126,
      "count": 624,
      "max": [
        0.9995962977409363,
        1.0000001192092896,
        0.999596357345581
      ],
      "min": [
        -0.9995964169502258,
        -0.999866783618927,
        -0.9995962977409363
      ],
      "type": "VEC3"
    },
    {
      "bufferView": 2,
      "byteOffset": 0,
      "componentType": 5126,
      "count": 624,
      "max": [
        1,
        0.9854111075401306
      ],
      "min": [
        0,
        0
      ],
      "type": "VEC2"
    },
    {
      "bufferView": 3,
      "byteOffset": 0,
      "componentType": 5123,
      "normalized": false,
      "count": 624,
      "max": [
        623
      ],
      "min": [
        0
      ],
      "type": "SCALAR"
    }
  ],
  "scene": 0,
  "scenes": [
    {
      "nodes": [
        0,
        1,
        2
      ],
      "name": "Scene"
    }
  ],
  "nodes": [
    {
      "children": [],
      "matrix": [
        -0.2908647358417511,
        -0.055189065635204315,
        -0.9551712274551392,
        0,
        0.566393256187439,
        0.7946722507476807,
        -0.21839122474193573,
        0,
        0.7711008787155151,
        -0.6045247912406921,
        -0.19988344609737396,
        0,
        4.076245307922363,
        5.903861999511719,
        -1.0054539442062378,
        1
      ]
    },
    {
      "children": [],
      "matrix": [
        0.6859206557273865,
        -4.011331711240018e-9,
        -0.7276763319969177,
        0,
        0.6515582203865051,
        0.44527140259742737,
        0.6141703724861145,
        0,
        0.32401347160339355,
        -0.8953956365585327,
        0.3054208755493164,
        0,
        7.358891487121582,
        4.958309173583984,
        6.925790786743164,
        1
      ]
    },
    {
      "children": [],
      "matrix": [
        0.22556191682815552,
        0,
        0,
        0,
        0,
        0.2255426049232483,
        0.002955725649371743,
        0,
        0,
        -0.002955725649371743,
        0.2255426049232483,
        0,
        0,
        0,
        0,
        1
      ],
      "mesh": 0
    }
  ],
  "cameras": [],
  "meshes": [
    {
      "primitives": [
        {
          "attributes": {
            "POSITION": 0,
            "NORMAL": 1,
            "TEXCOORD_0": 2
          },
          "material": 0,
          "mode": 4,
          "indices": 3
        }
      ]
    }
  ],
  "materials": [
    {
      "pbrMetallicRoughness": {
        "baseColorFactor": [
          4.8,
          4.8,
          4.8,
          1
        ],
        "metallicFactor": 0,
        "roughnessFactor": 0.5,
        "baseColorTexture": {
          "index": 0,
          "texCoord": 0
        }
      },
      "emissiveFactor": [
        0,
        0,
        0
      ],
      "alphaMode": "MASK",
      "alphaCutoff": 0.5,
      "doubleSided": false
    }
  ],
  "textures": [
    {
      "sampler": 0,
      "source": 0
    }
  ],
  "samplers": [
    {
      "magFilter": 9729,
      "minFilter": 9987,
      "wrapS": 10497,
      "wrapT": 10497
    }
  ],
  "images": [
    {
      "uri": "data:image/png;base64,",
      "mimeType": ""
    }
  ]
}