{
  "accessors": [
    {
      "name": "something0_0_positions",
      "componentType": 5126,
      "count": 486,
      "min": [
        -4.671939373016357,
        -13.982747077941895,
        -9.28317642211914
      ],
      "max": [
        4.74912691116333,
        19.26767921447754,
        9.51916217803955
      ],
      "type": "VEC3",
      "bufferView": 0,
      "byteOffset": 0
    },
    {
      "name": "something0_0_normals",
      "componentType": 5126,
      "count": 486,
      "min": [
        -0.9993682503700256,
        -0.9574576020240784,
        -0.983342707157135
      ],
      "max": [
        0.9988389015197754,
        0.973351776599884,
        0.9846538305282593
      ],
      "type": "VEC3",
      "bufferView": 1,
      "byteOffset": 0
    },
    {
      "name": "something0_0_texcoords",
      "componentType": 5126,
      "count": 486,
      "min": [
        0.010461734607815742,
        0.03472900390625
      ],
      "max": [
        0.9422772526741028,
        0.9835405945777893
      ],
      "type": "VEC2",
      "bufferView": 2,
      "byteOffset": 0
    },
    {
      "name": "something0_0_indices",
      "componentType": 5123,
      "count": 486,
      "min": [
        0
      ],
      "max": [
        485
      ],
      "type": "SCALAR",
      "bufferView": 3,
      "byteOffset": 0
    }
  ],
  "asset": {
    "generator": "obj2gltf",
    "version": "2.0"
  },
  "buffers": [
    {
      "name": "fish",
      "byteLength": 16524,
      "uri": "data:application/octet-stream;base64,"
    }
  ],
  "bufferViews": [
    {
      "name": "bufferView_0",
      "buffer": 0,
      "byteLength": 5832,
      "byteOffset": 0,
      "byteStride": 12,
      "target": 34962
    },
    {
      "name": "bufferView_1",
      "buffer": 0,
      "byteLength": 5832,
      "byteOffset": 5832,
      "byteStride": 12,
      "target": 34962
    },
    {
      "name": "bufferView_2",
      "buffer": 0,
      "byteLength": 3888,
      "byteOffset": 11664,
      "byteStride": 8,
      "target": 34962
    },
    {
      "name": "bufferView_3",
      "buffer": 0,
      "byteLength": 972,
      "byteOffset": 15552,
      "target": 34963
    }
  ],
  "materials": [
    {
      "name": "material0",
      "pbrMetallicRoughness": {
        "baseColorFactor": [
          0.5,
          0.5,
          0.5,
          1
        ],
        "metallicFactor": 0,
        "roughnessFactor": 1
      },
      "emissiveFactor": [
        0,
        0,
        0
      ],
      "alphaMode": "OPAQUE",
      "doubleSided": false
    }
  ],
  "meshes": [
    {
      "name": "something0",
      "primitives": [
        {
          "attributes": {
            "POSITION": 0,
            "NORMAL": 1,
            "TEXCOORD_0": 2
          },
          "indices": 3,
          "material": 0,
          "mode": 4
        }
      ]
    }
  ],
  "nodes": [
    {
      "name": "something",
      "mesh": 0
    }
  ],
  "scene": 0,
  "scenes": [
    {
      "nodes": [
        0
      ]
    }
  ]
}
