#MESHES :1
mtllib something.mtl
o something
v 0.9794087409973145 0.9985459446907043 0.7622491121292114
v -1.020590901374817 0.9985464215278625 0.7622491121292114
v -1.020350456237793 -1.001454472541809 0.7622490525245667
v 0.979649543762207 -1.0014547109603882 0.7622490525245667
vt 0.010000525042414665 0.9900000095367432
vt 0.9899997711181641 0.9899997115135193
vt 0.9899996519088745 0.009999990463256836
vt 0.009999999776482582 0.010000348091125488
vn 0.0 0.0 1.0
vn 0.0 0.0 1.0
vn 0.0 0.0 1.0
vn 0.0 0.0 1.0
g something0
usemtl material0
f 1/1/1 2/2/2 3/3/3 4/4/4
