{
    "asset" : {
        "generator" : "Khronos glTF Blender I/O v0.9.36",
        "version" : "2.0"
    },
    "scene" : 0,
    "scenes" : [
        {
            "name" : "Scene",
            "nodes" : [
                0,
                1,
                2
            ]
        }
    ],
    "nodes" : [
        {
            "name" : "Light",
            "rotation" : [
                0.16907575726509094,
                0.7558803558349609,
                -0.27217137813568115,
                0.570947527885437
            ],
            "translation" : [
                4.076245307922363,
                5.903861999511719,
                -1.0054539442062378
            ]
        },
        {
            "name" : "Camera",
            "rotation" : [
                0.483536034822464,
                0.33687159419059753,
                -0.20870360732078552,
                0.7804827094078064
            ],
            "translation" : [
                7.358891487121582,
                4.958309173583984,
                6.925790786743164
            ]
        },
        {
            "mesh" : 0,
            "name" : "something",
            "rotation" : [
                -0.003754168748855591,
                0,
                0,
                0.9999929070472717
            ],
            "scale" : [
                0.06234335899353027,
                0.06234336644411087,
                0.06234336644411087
            ]
        }
    ],
    "materials" : [
        {
            "emissiveFactor" : [
                0,
                0,
                0
            ],
            "name" : "material0",
            "pbrMetallicRoughness" : {
                "baseColorTexture" : {
                    "index" : 0,
                    "texCoord" : 0
                },
                "metallicFactor" : 0,
                "roughnessFactor" : 1
            }
        }
    ],
    "meshes" : [
        {
            "name" : "something0",
            "primitives" : [
                {
                    "attributes" : {
                        "POSITION" : 0,
                        "NORMAL" : 1,
                        "TEXCOORD_0" : 2
                    },
                    "indices" : 3,
                    "material" : 0
                }
            ]
        }
    ],
    "textures" : [
        {
            "source" : 0
        }
    ],
    "images" : [
        {
            "bufferView" : 4,
            "mimeType" : "image/png",
            "name" : "hero_lp"
        }
    ],
    "accessors" : [
        {
            "bufferView" : 0,
            "componentType" : 5126,
            "count" : 1758,
            "max" : [
                4.8727922439575195,
                21.35228157043457,
                2.6921491622924805
            ],
            "min" : [
                -6.885480880737305,
                0.1319650560617447,
                -4.977631092071533
            ],
            "type" : "VEC3"
        },
        {
            "bufferView" : 1,
            "componentType" : 5126,
            "count" : 1758,
            "type" : "VEC3"
        },
        {
            "bufferView" : 2,
            "componentType" : 5126,
            "count" : 1758,
            "type" : "VEC2"
        },
        {
            "bufferView" : 3,
            "componentType" : 5123,
            "count" : 1758,
            "type" : "SCALAR"
        }
    ],
    "bufferViews" : [
        {
            "buffer" : 0,
            "byteLength" : 21096,
            "byteOffset" : 0
        },
        {
            "buffer" : 0,
            "byteLength" : 21096,
            "byteOffset" : 21096
        },
        {
            "buffer" : 0,
            "byteLength" : 14064,
            "byteOffset" : 42192
        },
        {
            "buffer" : 0,
            "byteLength" : 3516,
            "byteOffset" : 56256
        },
        {
            "buffer" : 0,
            "byteLength" : 38739,
            "byteOffset" : 59772
        }
    ],
    "buffers" : [
        {
            "byteLength" : 98512,
            "uri" : "data:application/octet-stream;base64,"
        }
    ]
}
