{
  "accessors": [
    {
      "name": "cube1_sep2_cube1_sep2_auv_0_positions",
      "componentType": 5126,
      "count": 259,
      "min": [
        -0.49531763792037964,
        -0.49531763792037964,
        -0.022132553160190582
      ],
      "max": [
        0.49531763792037964,
        0.49531763792037964,
        1.243635892868042
      ],
      "type": "VEC3",
      "bufferView": 0,
      "byteOffset": 0
    },
    {
      "name": "cube1_sep2_cube1_sep2_auv_0_normals",
      "componentType": 5126,
      "count": 259,
      "min": [
        -0.9818703532218933,
        -0.9818703532218933,
        -1
      ],
      "max": [
        0.9818703532218933,
        0.9818703532218933,
        0.9263200163841248
      ],
      "type": "VEC3",
      "bufferView": 1,
      "byteOffset": 0
    },
    {
      "name": "cube1_sep2_cube1_sep2_auv_0_texcoords",
      "componentType": 5126,
      "count": 259,
      "min": [
        7.32920668600201e-17,
        0.014844129793345928
      ],
      "max": [
        1,
        0.9982982277870178
      ],
      "type": "VEC2",
      "bufferView": 2,
      "byteOffset": 0
    },
    {
      "name": "cube1_sep2_cube1_sep2_auv_0_indices",
      "componentType": 5123,
      "count": 372,
      "min": [
        0
      ],
      "max": [
        258
      ],
      "type": "SCALAR",
      "bufferView": 3,
      "byteOffset": 0
    },
    {
      "name": "cube1_sep2_cube3_auv_0_positions",
      "componentType": 5126,
      "count": 444,
      "min": [
        0.0017745804507285357,
        -0.6408654451370239,
        0.45235785841941833
      ],
      "max": [
        0.4534190595149994,
        0.6389479637145996,
        1.7302757501602173
      ],
      "type": "VEC3",
      "bufferView": 0,
      "byteOffset": 3108
    },
    {
      "name": "cube1_sep2_cube3_auv_0_normals",
      "componentType": 5126,
      "count": 444,
      "min": [
        -0.9937289357185364,
        -0.9437989592552185,
        -0.9417614936828613
      ],
      "max": [
        0.9937289357185364,
        0.9437989592552185,
        1
      ],
      "type": "VEC3",
      "bufferView": 1,
      "byteOffset": 3108
    },
    {
      "name": "cube1_sep2_cube3_auv_0_texcoords",
      "componentType": 5126,
      "count": 444,
      "min": [
        0.4506394863128662,
        0.02005263976752758
      ],
      "max": [
        0.9841974377632141,
        0.6070454120635986
      ],
      "type": "VEC2",
      "bufferView": 2,
      "byteOffset": 2072
    },
    {
      "name": "cube1_sep2_cube3_auv_0_indices",
      "componentType": 5123,
      "count": 444,
      "min": [
        0
      ],
      "max": [
        443
      ],
      "type": "SCALAR",
      "bufferView": 3,
      "byteOffset": 744
    }
  ],
  "asset": {
    "generator": "obj2gltf",
    "version": "2.0"
  },
  "buffers": [
    {
      "name": "mill",
      "byteLength": 24128,
      "uri": "data:application/octet-stream;base64,"
    }
  ],
  "bufferViews": [
    {
      "name": "bufferView_0",
      "buffer": 0,
      "byteLength": 8436,
      "byteOffset": 0,
      "byteStride": 12,
      "target": 34962
    },
    {
      "name": "bufferView_1",
      "buffer": 0,
      "byteLength": 8436,
      "byteOffset": 8436,
      "byteStride": 12,
      "target": 34962
    },
    {
      "name": "bufferView_2",
      "buffer": 0,
      "byteLength": 5624,
      "byteOffset": 16872,
      "byteStride": 8,
      "target": 34962
    },
    {
      "name": "bufferView_3",
      "buffer": 0,
      "byteLength": 1632,
      "byteOffset": 22496,
      "target": 34963
    }
  ],
  "materials": [
    {
      "name": "cube1_sep2_auv",
      "pbrMetallicRoughness": {
        "baseColorFactor": [
          0.5,
          0.5,
          0.5,
          1
        ],
        "metallicFactor": 0,
        "roughnessFactor": 1
      },
      "emissiveFactor": [
        0,
        0,
        0
      ],
      "alphaMode": "OPAQUE",
      "doubleSided": false
    },
    {
      "name": "cube3_auv",
      "pbrMetallicRoughness": {
        "baseColorFactor": [
          0.5,
          0.5,
          0.5,
          1
        ],
        "metallicFactor": 0,
        "roughnessFactor": 1
      },
      "emissiveFactor": [
        0,
        0,
        0
      ],
      "alphaMode": "OPAQUE",
      "doubleSided": false
    }
  ],
  "meshes": [
    {
      "name": "cube1_sep2_cube1_sep2_auv",
      "primitives": [
        {
          "attributes": {
            "POSITION": 0,
            "NORMAL": 1,
            "TEXCOORD_0": 2
          },
          "indices": 3,
          "material": 0,
          "mode": 4
        }
      ]
    },
    {
      "name": "cube1_sep2_cube3_auv",
      "primitives": [
        {
          "attributes": {
            "POSITION": 4,
            "NORMAL": 5,
            "TEXCOORD_0": 6
          },
          "indices": 7,
          "material": 1,
          "mode": 4
        }
      ]
    }
  ],
  "nodes": [
    {
      "name": "cube1_sep2",
      "children": [
        1,
        2
      ]
    },
    {
      "name": "cube1_sep2_cube1_sep2_auv",
      "mesh": 0
    },
    {
      "name": "cube1_sep2_cube3_auv",
      "mesh": 1
    }
  ],
  "scene": 0,
  "scenes": [
    {
      "nodes": [
        0
      ]
    }
  ]
}
