{
  "accessors": [
    {
      "name": "something0_0_positions",
      "componentType": 5126,
      "count": 200,
      "min": [
        -0.4198652505874634,
        -0.5399605631828308,
        -0.7815989851951599
      ],
      "max": [
        0.4198652505874634,
        1.0493727922439575,
        0.7278218269348145
      ],
      "type": "VEC3",
      "bufferView": 0,
      "byteOffset": 0
    },
    {
      "name": "something0_0_normals",
      "componentType": 5126,
      "count": 200,
      "min": [
        -0.7071067690849304,
        -1,
        -1
      ],
      "max": [
        0.6259225606918335,
        0.9045395851135254,
        0.8221259117126465
      ],
      "type": "VEC3",
      "bufferView": 1,
      "byteOffset": 0
    },
    {
      "name": "something0_0_texcoords",
      "componentType": 5126,
      "count": 200,
      "min": [
        0,
        0
      ],
      "max": [
        1,
        1
      ],
      "type": "VEC2",
      "bufferView": 2,
      "byteOffset": 0
    },
    {
      "name": "something0_0_indices",
      "componentType": 5123,
      "count": 276,
      "min": [
        0
      ],
      "max": [
        199
      ],
      "type": "SCALAR",
      "bufferView": 3,
      "byteOffset": 0
    },
    {
      "name": "something1_0_positions",
      "componentType": 5126,
      "count": 24,
      "min": [
        -0.28651198744773865,
        -0.28651198744773865,
        0.026376888155937195
      ],
      "max": [
        0.28651198744773865,
        0.28651198744773865,
        0.5994008779525757
      ],
      "type": "VEC3",
      "bufferView": 0,
      "byteOffset": 2400
    },
    {
      "name": "something1_0_normals",
      "componentType": 5126,
      "count": 24,
      "min": [
        -0.5773502588272095,
        -0.5773502588272095,
        -0.5773502588272095
      ],
      "max": [
        0.5773502588272095,
        0.5773502588272095,
        0.5773502588272095
      ],
      "type": "VEC3",
      "bufferView": 1,
      "byteOffset": 2400
    },
    {
      "name": "something1_0_texcoords",
      "componentType": 5126,
      "count": 24,
      "min": [
        0,
        0
      ],
      "max": [
        1,
        1
      ],
      "type": "VEC2",
      "bufferView": 2,
      "byteOffset": 1600
    },
    {
      "name": "something1_0_indices",
      "componentType": 5123,
      "count": 36,
      "min": [
        0
      ],
      "max": [
        23
      ],
      "type": "SCALAR",
      "bufferView": 3,
      "byteOffset": 552
    },
    {
      "name": "something2_0_positions",
      "componentType": 5126,
      "count": 418,
      "min": [
        0.41719815135002136,
        -0.6478424072265625,
        0.02019864320755005
      ],
      "max": [
        0.6491981148719788,
        -0.4158423840999603,
        0.3470384478569031
      ],
      "type": "VEC3",
      "bufferView": 0,
      "byteOffset": 2688
    },
    {
      "name": "something2_0_normals",
      "componentType": 5126,
      "count": 418,
      "min": [
        -0.9981637597084045,
        -0.9960805773735046,
        -0.892078161239624
      ],
      "max": [
        0.9894008040428162,
        0.9974184036254883,
        0.9875532984733582
      ],
      "type": "VEC3",
      "bufferView": 1,
      "byteOffset": 2688
    },
    {
      "name": "something2_0_texcoords",
      "componentType": 5126,
      "count": 418,
      "min": [
        0,
        0
      ],
      "max": [
        1,
        1
      ],
      "type": "VEC2",
      "bufferView": 2,
      "byteOffset": 1792
    },
    {
      "name": "something2_0_indices",
      "componentType": 5123,
      "count": 618,
      "min": [
        0
      ],
      "max": [
        417
      ],
      "type": "SCALAR",
      "bufferView": 3,
      "byteOffset": 624
    },
    {
      "name": "something3_0_positions",
      "componentType": 5126,
      "count": 418,
      "min": [
        0.4782249331474304,
        -0.47475430369377136,
        0.02499614655971527
      ],
      "max": [
        0.7102249264717102,
        -0.24275429546833038,
        0.3518359661102295
      ],
      "type": "VEC3",
      "bufferView": 0,
      "byteOffset": 7704
    },
    {
      "name": "something3_0_normals",
      "componentType": 5126,
      "count": 418,
      "min": [
        -0.9981637597084045,
        -0.9960805773735046,
        -0.892078161239624
      ],
      "max": [
        0.9894008040428162,
        0.9974184036254883,
        0.9875532984733582
      ],
      "type": "VEC3",
      "bufferView": 1,
      "byteOffset": 7704
    },
    {
      "name": "something3_0_texcoords",
      "componentType": 5126,
      "count": 418,
      "min": [
        0,
        0
      ],
      "max": [
        1,
        1
      ],
      "type": "VEC2",
      "bufferView": 2,
      "byteOffset": 5136
    },
    {
      "name": "something3_0_indices",
      "componentType": 5123,
      "count": 618,
      "min": [
        0
      ],
      "max": [
        417
      ],
      "type": "SCALAR",
      "bufferView": 3,
      "byteOffset": 1860
    },
    {
      "name": "something4_0_positions",
      "componentType": 5126,
      "count": 72,
      "min": [
        -0.13851884007453918,
        -1.1515474319458008,
        0.027412930503487587
      ],
      "max": [
        0.13848915696144104,
        -0.5480101704597473,
        0.05516691505908966
      ],
      "type": "VEC3",
      "bufferView": 0,
      "byteOffset": 12720
    },
    {
      "name": "something4_0_normals",
      "componentType": 5126,
      "count": 72,
      "min": [
        -0.5773502588272095,
        -0.5773502588272095,
        -0.5773502588272095
      ],
      "max": [
        0.5773502588272095,
        0.5773502588272095,
        0.5773502588272095
      ],
      "type": "VEC3",
      "bufferView": 1,
      "byteOffset": 12720
    },
    {
      "name": "something4_0_texcoords",
      "componentType": 5126,
      "count": 72,
      "min": [
        0,
        0
      ],
      "max": [
        1,
        1
      ],
      "type": "VEC2",
      "bufferView": 2,
      "byteOffset": 8480
    },
    {
      "name": "something4_0_indices",
      "componentType": 5123,
      "count": 108,
      "min": [
        0
      ],
      "max": [
        71
      ],
      "type": "SCALAR",
      "bufferView": 3,
      "byteOffset": 3096
    },
    {
      "name": "something5_0_positions",
      "componentType": 5126,
      "count": 80,
      "min": [
        -0.14725007116794586,
        -1.267343282699585,
        -0.03691292554140091
      ],
      "max": [
        0.14681507647037506,
        0.18292002379894257,
        0.06926772743463516
      ],
      "type": "VEC3",
      "bufferView": 0,
      "byteOffset": 13584
    },
    {
      "name": "something5_0_normals",
      "componentType": 5126,
      "count": 80,
      "min": [
        -0.6996269226074219,
        -0.6097118258476257,
        -0.7140344977378845
      ],
      "max": [
        0.7153567671775818,
        0.6045253276824951,
        0.7140931487083435
      ],
      "type": "VEC3",
      "bufferView": 1,
      "byteOffset": 13584
    },
    {
      "name": "something5_0_texcoords",
      "componentType": 5126,
      "count": 80,
      "min": [
        0,
        0
      ],
      "max": [
        1,
        1
      ],
      "type": "VEC2",
      "bufferView": 2,
      "byteOffset": 9056
    },
    {
      "name": "something5_0_indices",
      "componentType": 5123,
      "count": 120,
      "min": [
        0
      ],
      "max": [
        79
      ],
      "type": "SCALAR",
      "bufferView": 3,
      "byteOffset": 3312
    }
  ],
  "asset": {
    "generator": "obj2gltf",
    "version": "2.0"
  },
  "buffers": [
    {
      "name": "mine",
      "byteLength": 42336,
      "uri": "data:application/octet-stream;base64,"
    }
  ],
  "bufferViews": [
    {
      "name": "bufferView_0",
      "buffer": 0,
      "byteLength": 14544,
      "byteOffset": 0,
      "byteStride": 12,
      "target": 34962
    },
    {
      "name": "bufferView_1",
      "buffer": 0,
      "byteLength": 14544,
      "byteOffset": 14544,
      "byteStride": 12,
      "target": 34962
    },
    {
      "name": "bufferView_2",
      "buffer": 0,
      "byteLength": 9696,
      "byteOffset": 29088,
      "byteStride": 8,
      "target": 34962
    },
    {
      "name": "bufferView_3",
      "buffer": 0,
      "byteLength": 3552,
      "byteOffset": 38784,
      "target": 34963
    }
  ],
  "materials": [
    {
      "name": "material0",
      "pbrMetallicRoughness": {
        "baseColorFactor": [
          0.5,
          0.5,
          0.5,
          1
        ],
        "metallicFactor": 0,
        "roughnessFactor": 1
      },
      "emissiveFactor": [
        0,
        0,
        0
      ],
      "alphaMode": "OPAQUE",
      "doubleSided": false
    },
    {
      "name": "material1",
      "pbrMetallicRoughness": {
        "baseColorFactor": [
          0.5,
          0.5,
          0.5,
          1
        ],
        "metallicFactor": 0,
        "roughnessFactor": 1
      },
      "emissiveFactor": [
        0,
        0,
        0
      ],
      "alphaMode": "OPAQUE",
      "doubleSided": false
    },
    {
      "name": "material2",
      "pbrMetallicRoughness": {
        "baseColorFactor": [
          0.5,
          0.5,
          0.5,
          1
        ],
        "metallicFactor": 0,
        "roughnessFactor": 1
      },
      "emissiveFactor": [
        0,
        0,
        0
      ],
      "alphaMode": "OPAQUE",
      "doubleSided": false
    },
    {
      "name": "material3",
      "pbrMetallicRoughness": {
        "baseColorFactor": [
          0.5,
          0.5,
          0.5,
          1
        ],
        "metallicFactor": 0,
        "roughnessFactor": 1
      },
      "emissiveFactor": [
        0,
        0,
        0
      ],
      "alphaMode": "OPAQUE",
      "doubleSided": false
    },
    {
      "name": "material4",
      "pbrMetallicRoughness": {
        "baseColorFactor": [
          0.5,
          0.5,
          0.5,
          1
        ],
        "metallicFactor": 0,
        "roughnessFactor": 1
      },
      "emissiveFactor": [
        0,
        0,
        0
      ],
      "alphaMode": "OPAQUE",
      "doubleSided": false
    },
    {
      "name": "material5",
      "pbrMetallicRoughness": {
        "baseColorFactor": [
          0.5,
          0.5,
          0.5,
          1
        ],
        "metallicFactor": 0,
        "roughnessFactor": 1
      },
      "emissiveFactor": [
        0,
        0,
        0
      ],
      "alphaMode": "OPAQUE",
      "doubleSided": false
    }
  ],
  "meshes": [
    {
      "name": "something0",
      "primitives": [
        {
          "attributes": {
            "POSITION": 0,
            "NORMAL": 1,
            "TEXCOORD_0": 2
          },
          "indices": 3,
          "material": 0,
          "mode": 4
        }
      ]
    },
    {
      "name": "something1",
      "primitives": [
        {
          "attributes": {
            "POSITION": 4,
            "NORMAL": 5,
            "TEXCOORD_0": 6
          },
          "indices": 7,
          "material": 1,
          "mode": 4
        }
      ]
    },
    {
      "name": "something2",
      "primitives": [
        {
          "attributes": {
            "POSITION": 8,
            "NORMAL": 9,
            "TEXCOORD_0": 10
          },
          "indices": 11,
          "material": 2,
          "mode": 4
        }
      ]
    },
    {
      "name": "something3",
      "primitives": [
        {
          "attributes": {
            "POSITION": 12,
            "NORMAL": 13,
            "TEXCOORD_0": 14
          },
          "indices": 15,
          "material": 3,
          "mode": 4
        }
      ]
    },
    {
      "name": "something4",
      "primitives": [
        {
          "attributes": {
            "POSITION": 16,
            "NORMAL": 17,
            "TEXCOORD_0": 18
          },
          "indices": 19,
          "material": 4,
          "mode": 4
        }
      ]
    },
    {
      "name": "something5",
      "primitives": [
        {
          "attributes": {
            "POSITION": 20,
            "NORMAL": 21,
            "TEXCOORD_0": 22
          },
          "indices": 23,
          "material": 5,
          "mode": 4
        }
      ]
    }
  ],
  "nodes": [
    {
      "name": "something",
      "children": [
        1,
        2,
        3,
        4,
        5,
        6
      ]
    },
    {
      "name": "something0",
      "mesh": 0
    },
    {
      "name": "something1",
      "mesh": 1
    },
    {
      "name": "something2",
      "mesh": 2
    },
    {
      "name": "something3",
      "mesh": 3
    },
    {
      "name": "something4",
      "mesh": 4
    },
    {
      "name": "something5",
      "mesh": 5
    }
  ],
  "scene": 0,
  "scenes": [
    {
      "nodes": [
        0
      ]
    }
  ]
}
