{
  "accessors": [
    {
      "name": "something0_0_positions",
      "componentType": 5126,
      "count": 872,
      "min": [
        -0.48055925965309143,
        -0.8843411207199097,
        0.6883122324943542
      ],
      "max": [
        0.4872792363166809,
        0.0955323576927185,
        2.7855494022369385
      ],
      "type": "VEC3",
      "bufferView": 0,
      "byteOffset": 0
    },
    {
      "name": "something0_0_normals",
      "componentType": 5126,
      "count": 872,
      "min": [
        -0.9980838894844055,
        -0.9913888573646545,
        -0.9699269533157349
      ],
      "max": [
        0.9988752603530884,
        0.9964374303817749,
        0.9864330291748047
      ],
      "type": "VEC3",
      "bufferView": 1,
      "byteOffset": 0
    },
    {
      "name": "something0_0_texcoords",
      "componentType": 5126,
      "count": 872,
      "min": [
        0,
        0
      ],
      "max": [
        1,
        1
      ],
      "type": "VEC2",
      "bufferView": 2,
      "byteOffset": 0
    },
    {
      "name": "something0_0_indices",
      "componentType": 5123,
      "count": 1110,
      "min": [
        0
      ],
      "max": [
        871
      ],
      "type": "SCALAR",
      "bufferView": 3,
      "byteOffset": 0
    },
    {
      "name": "something1_0_positions",
      "componentType": 5126,
      "count": 432,
      "min": [
        -1.7304283380508423,
        -1.661392092704773,
        -0.003164352383464575
      ],
      "max": [
        1.714643955230713,
        1.4854621887207031,
        2.0915305614471436
      ],
      "type": "VEC3",
      "bufferView": 0,
      "byteOffset": 10464
    },
    {
      "name": "something1_0_normals",
      "componentType": 5126,
      "count": 432,
      "min": [
        -1,
        -1,
        -0.9073099493980408
      ],
      "max": [
        1,
        1,
        0.8846021294593811
      ],
      "type": "VEC3",
      "bufferView": 1,
      "byteOffset": 10464
    },
    {
      "name": "something1_0_texcoords",
      "componentType": 5126,
      "count": 432,
      "min": [
        0,
        0
      ],
      "max": [
        1,
        1
      ],
      "type": "VEC2",
      "bufferView": 2,
      "byteOffset": 6976
    },
    {
      "name": "something1_0_indices",
      "componentType": 5123,
      "count": 588,
      "min": [
        0
      ],
      "max": [
        431
      ],
      "type": "SCALAR",
      "bufferView": 3,
      "byteOffset": 2220
    }
  ],
  "asset": {
    "generator": "obj2gltf",
    "version": "2.0"
  },
  "buffers": [
    {
      "name": "old_monument",
      "byteLength": 45124,
      "uri": "data:application/octet-stream;base64,"
    }
  ],
  "bufferViews": [
    {
      "name": "bufferView_0",
      "buffer": 0,
      "byteLength": 15648,
      "byteOffset": 0,
      "byteStride": 12,
      "target": 34962
    },
    {
      "name": "bufferView_1",
      "buffer": 0,
      "byteLength": 15648,
      "byteOffset": 15648,
      "byteStride": 12,
      "target": 34962
    },
    {
      "name": "bufferView_2",
      "buffer": 0,
      "byteLength": 10432,
      "byteOffset": 31296,
      "byteStride": 8,
      "target": 34962
    },
    {
      "name": "bufferView_3",
      "buffer": 0,
      "byteLength": 3396,
      "byteOffset": 41728,
      "target": 34963
    }
  ],
  "materials": [
    {
      "name": "material0",
      "pbrMetallicRoughness": {
        "baseColorFactor": [
          0.5,
          0.5,
          0.5,
          1
        ],
        "metallicFactor": 0,
        "roughnessFactor": 1
      },
      "emissiveFactor": [
        0,
        0,
        0
      ],
      "alphaMode": "OPAQUE",
      "doubleSided": false
    },
    {
      "name": "material1",
      "pbrMetallicRoughness": {
        "baseColorFactor": [
          0.5,
          0.5,
          0.5,
          1
        ],
        "metallicFactor": 0,
        "roughnessFactor": 1
      },
      "emissiveFactor": [
        0,
        0,
        0
      ],
      "alphaMode": "OPAQUE",
      "doubleSided": false
    }
  ],
  "meshes": [
    {
      "name": "something0",
      "primitives": [
        {
          "attributes": {
            "POSITION": 0,
            "NORMAL": 1,
            "TEXCOORD_0": 2
          },
          "indices": 3,
          "material": 0,
          "mode": 4
        }
      ]
    },
    {
      "name": "something1",
      "primitives": [
        {
          "attributes": {
            "POSITION": 4,
            "NORMAL": 5,
            "TEXCOORD_0": 6
          },
          "indices": 7,
          "material": 1,
          "mode": 4
        }
      ]
    }
  ],
  "nodes": [
    {
      "name": "something",
      "children": [
        1,
        2
      ]
    },
    {
      "name": "something0",
      "mesh": 0
    },
    {
      "name": "something1",
      "mesh": 1
    }
  ],
  "scene": 0,
  "scenes": [
    {
      "nodes": [
        0
      ]
    }
  ]
}
