{
  "accessors": [
    {
      "name": "something0_0_positions",
      "componentType": 5126,
      "count": 24,
      "min": [
        -0.1979571133852005,
        -0.44111013412475586,
        0.012485937215387821
      ],
      "max": [
        -0.12283112108707428,
        -0.35338279604911804,
        0.09734085947275162
      ],
      "type": "VEC3",
      "bufferView": 0,
      "byteOffset": 0
    },
    {
      "name": "something0_0_normals",
      "componentType": 5126,
      "count": 24,
      "min": [
        -0.5194967985153198,
        -0.7298978567123413,
        -0.6872300505638123
      ],
      "max": [
        0.7332543134689331,
        0.5077774524688721,
        0.7541667222976685
      ],
      "type": "VEC3",
      "bufferView": 1,
      "byteOffset": 0
    },
    {
      "name": "something0_0_texcoords",
      "componentType": 5126,
      "count": 24,
      "min": [
        0,
        0
      ],
      "max": [
        1,
        1
      ],
      "type": "VEC2",
      "bufferView": 2,
      "byteOffset": 0
    },
    {
      "name": "something0_0_indices",
      "componentType": 5123,
      "count": 36,
      "min": [
        0
      ],
      "max": [
        23
      ],
      "type": "SCALAR",
      "bufferView": 3,
      "byteOffset": 0
    },
    {
      "name": "something1_0_positions",
      "componentType": 5126,
      "count": 128,
      "min": [
        0.029821043834090233,
        -0.47607722878456116,
        0.002073418814688921
      ],
      "max": [
        0.5592456459999084,
        -0.0039375536143779755,
        0.13960084319114685
      ],
      "type": "VEC3",
      "bufferView": 0,
      "byteOffset": 288
    },
    {
      "name": "something1_0_normals",
      "componentType": 5126,
      "count": 128,
      "min": [
        -0.9028801918029785,
        -1,
        -0.8878158330917358
      ],
      "max": [
        0.8053449988365173,
        0.6257627606391907,
        0.8878158330917358
      ],
      "type": "VEC3",
      "bufferView": 1,
      "byteOffset": 288
    },
    {
      "name": "something1_0_texcoords",
      "componentType": 5126,
      "count": 128,
      "min": [
        0,
        0
      ],
      "max": [
        1,
        1
      ],
      "type": "VEC2",
      "bufferView": 2,
      "byteOffset": 192
    },
    {
      "name": "something1_0_indices",
      "componentType": 5123,
      "count": 168,
      "min": [
        0
      ],
      "max": [
        127
      ],
      "type": "SCALAR",
      "bufferView": 3,
      "byteOffset": 72
    },
    {
      "name": "something2_0_positions",
      "componentType": 5126,
      "count": 270,
      "min": [
        -0.3970560133457184,
        -0.5964348316192627,
        0.01140935905277729
      ],
      "max": [
        0.3970560133457184,
        0.3621043562889099,
        0.40003469586372375
      ],
      "type": "VEC3",
      "bufferView": 0,
      "byteOffset": 1824
    },
    {
      "name": "something2_0_normals",
      "componentType": 5126,
      "count": 270,
      "min": [
        -0.9824774861335754,
        -0.8789011836051941,
        -0.9160854816436768
      ],
      "max": [
        0.9997971057891846,
        0.8981812000274658,
        0.9764799475669861
      ],
      "type": "VEC3",
      "bufferView": 1,
      "byteOffset": 1824
    },
    {
      "name": "something2_0_texcoords",
      "componentType": 5126,
      "count": 270,
      "min": [
        0,
        0
      ],
      "max": [
        1,
        1
      ],
      "type": "VEC2",
      "bufferView": 2,
      "byteOffset": 1216
    },
    {
      "name": "something2_0_indices",
      "componentType": 5123,
      "count": 384,
      "min": [
        0
      ],
      "max": [
        269
      ],
      "type": "SCALAR",
      "bufferView": 3,
      "byteOffset": 408
    },
    {
      "name": "something3_0_positions",
      "componentType": 5126,
      "count": 24,
      "min": [
        0.5119602084159851,
        0.3509174585342407,
        0.012485937215387821
      ],
      "max": [
        0.6049413681030273,
        0.4551124572753906,
        0.09734085947275162
      ],
      "type": "VEC3",
      "bufferView": 0,
      "byteOffset": 5064
    },
    {
      "name": "something3_0_normals",
      "componentType": 5126,
      "count": 24,
      "min": [
        -0.6890046000480652,
        -0.6996490359306335,
        -0.6872345209121704
      ],
      "max": [
        0.922235369682312,
        0.4130125045776367,
        0.7541611194610596
      ],
      "type": "VEC3",
      "bufferView": 1,
      "byteOffset": 5064
    },
    {
      "name": "something3_0_texcoords",
      "componentType": 5126,
      "count": 24,
      "min": [
        0,
        0
      ],
      "max": [
        1,
        1
      ],
      "type": "VEC2",
      "bufferView": 2,
      "byteOffset": 3376
    },
    {
      "name": "something3_0_indices",
      "componentType": 5123,
      "count": 36,
      "min": [
        0
      ],
      "max": [
        23
      ],
      "type": "SCALAR",
      "bufferView": 3,
      "byteOffset": 1176
    },
    {
      "name": "something4_0_positions",
      "componentType": 5126,
      "count": 462,
      "min": [
        -0.6700000166893005,
        -1.1918390989303589,
        0.019777778536081314
      ],
      "max": [
        -0.06599999964237213,
        -0.5993333458900452,
        0.7333252429962158
      ],
      "type": "VEC3",
      "bufferView": 0,
      "byteOffset": 5352
    },
    {
      "name": "something4_0_normals",
      "componentType": 5126,
      "count": 462,
      "min": [
        -0.9528257846832275,
        -0.915601372718811,
        -0.7745095491409302
      ],
      "max": [
        0.999522864818573,
        0.9417269229888916,
        0.7585508227348328
      ],
      "type": "VEC3",
      "bufferView": 1,
      "byteOffset": 5352
    },
    {
      "name": "something4_0_texcoords",
      "componentType": 5126,
      "count": 462,
      "min": [
        0,
        0
      ],
      "max": [
        1,
        1
      ],
      "type": "VEC2",
      "bufferView": 2,
      "byteOffset": 3568
    },
    {
      "name": "something4_0_indices",
      "componentType": 5123,
      "count": 624,
      "min": [
        0
      ],
      "max": [
        461
      ],
      "type": "SCALAR",
      "bufferView": 3,
      "byteOffset": 1248
    },
    {
      "name": "something5_0_positions",
      "componentType": 5126,
      "count": 342,
      "min": [
        0.32440322637557983,
        0.275910884141922,
        0.019777778536081314
      ],
      "max": [
        0.9252253770828247,
        0.7668678164482117,
        0.7333252429962158
      ],
      "type": "VEC3",
      "bufferView": 0,
      "byteOffset": 10896
    },
    {
      "name": "something5_0_normals",
      "componentType": 5126,
      "count": 342,
      "min": [
        -0.9996353387832642,
        -0.9742932319641113,
        -0.8757070899009705
      ],
      "max": [
        0.9971044659614563,
        0.9212948083877563,
        1
      ],
      "type": "VEC3",
      "bufferView": 1,
      "byteOffset": 10896
    },
    {
      "name": "something5_0_texcoords",
      "componentType": 5126,
      "count": 342,
      "min": [
        0,
        0
      ],
      "max": [
        1,
        1
      ],
      "type": "VEC2",
      "bufferView": 2,
      "byteOffset": 7264
    },
    {
      "name": "something5_0_indices",
      "componentType": 5123,
      "count": 456,
      "min": [
        0
      ],
      "max": [
        341
      ],
      "type": "SCALAR",
      "bufferView": 3,
      "byteOffset": 2496
    },
    {
      "name": "something6_0_positions",
      "componentType": 5126,
      "count": 24,
      "min": [
        0.5382305979728699,
        0.26813504099845886,
        0.012485937215387821
      ],
      "max": [
        0.6133565902709961,
        0.3558623492717743,
        0.09734085947275162
      ],
      "type": "VEC3",
      "bufferView": 0,
      "byteOffset": 15000
    },
    {
      "name": "something6_0_normals",
      "componentType": 5126,
      "count": 24,
      "min": [
        -0.5194967985153198,
        -0.7298978567123413,
        -0.6872300505638123
      ],
      "max": [
        0.7332543134689331,
        0.5077774524688721,
        0.7541667222976685
      ],
      "type": "VEC3",
      "bufferView": 1,
      "byteOffset": 15000
    },
    {
      "name": "something6_0_texcoords",
      "componentType": 5126,
      "count": 24,
      "min": [
        0,
        0
      ],
      "max": [
        1,
        1
      ],
      "type": "VEC2",
      "bufferView": 2,
      "byteOffset": 10000
    },
    {
      "name": "something6_0_indices",
      "componentType": 5123,
      "count": 36,
      "min": [
        0
      ],
      "max": [
        23
      ],
      "type": "SCALAR",
      "bufferView": 3,
      "byteOffset": 3408
    }
  ],
  "asset": {
    "generator": "obj2gltf",
    "version": "2.0"
  },
  "buffers": [
    {
      "name": "ruin",
      "byteLength": 44248,
      "uri": "data:application/octet-stream;base64,"
    }
  ],
  "bufferViews": [
    {
      "name": "bufferView_0",
      "buffer": 0,
      "byteLength": 15288,
      "byteOffset": 0,
      "byteStride": 12,
      "target": 34962
    },
    {
      "name": "bufferView_1",
      "buffer": 0,
      "byteLength": 15288,
      "byteOffset": 15288,
      "byteStride": 12,
      "target": 34962
    },
    {
      "name": "bufferView_2",
      "buffer": 0,
      "byteLength": 10192,
      "byteOffset": 30576,
      "byteStride": 8,
      "target": 34962
    },
    {
      "name": "bufferView_3",
      "buffer": 0,
      "byteLength": 3480,
      "byteOffset": 40768,
      "target": 34963
    }
  ],
  "materials": [
    {
      "name": "material0",
      "pbrMetallicRoughness": {
        "baseColorFactor": [
          0.5,
          0.5,
          0.5,
          1
        ],
        "metallicFactor": 0,
        "roughnessFactor": 1
      },
      "emissiveFactor": [
        0,
        0,
        0
      ],
      "alphaMode": "OPAQUE",
      "doubleSided": false
    },
    {
      "name": "material1",
      "pbrMetallicRoughness": {
        "baseColorFactor": [
          0.5,
          0.5,
          0.5,
          1
        ],
        "metallicFactor": 0,
        "roughnessFactor": 1
      },
      "emissiveFactor": [
        0,
        0,
        0
      ],
      "alphaMode": "OPAQUE",
      "doubleSided": false
    },
    {
      "name": "material2",
      "pbrMetallicRoughness": {
        "baseColorFactor": [
          0.5,
          0.5,
          0.5,
          1
        ],
        "metallicFactor": 0,
        "roughnessFactor": 1
      },
      "emissiveFactor": [
        0,
        0,
        0
      ],
      "alphaMode": "OPAQUE",
      "doubleSided": false
    },
    {
      "name": "material3",
      "pbrMetallicRoughness": {
        "baseColorFactor": [
          0.5,
          0.5,
          0.5,
          1
        ],
        "metallicFactor": 0,
        "roughnessFactor": 1
      },
      "emissiveFactor": [
        0,
        0,
        0
      ],
      "alphaMode": "OPAQUE",
      "doubleSided": false
    },
    {
      "name": "material4",
      "pbrMetallicRoughness": {
        "baseColorFactor": [
          0.5,
          0.5,
          0.5,
          1
        ],
        "metallicFactor": 0,
        "roughnessFactor": 1
      },
      "emissiveFactor": [
        0,
        0,
        0
      ],
      "alphaMode": "OPAQUE",
      "doubleSided": false
    },
    {
      "name": "material5",
      "pbrMetallicRoughness": {
        "baseColorFactor": [
          0.5,
          0.5,
          0.5,
          1
        ],
        "metallicFactor": 0,
        "roughnessFactor": 1
      },
      "emissiveFactor": [
        0,
        0,
        0
      ],
      "alphaMode": "OPAQUE",
      "doubleSided": false
    },
    {
      "name": "material6",
      "pbrMetallicRoughness": {
        "baseColorFactor": [
          0.5,
          0.5,
          0.5,
          1
        ],
        "metallicFactor": 0,
        "roughnessFactor": 1
      },
      "emissiveFactor": [
        0,
        0,
        0
      ],
      "alphaMode": "OPAQUE",
      "doubleSided": false
    }
  ],
  "meshes": [
    {
      "name": "something0",
      "primitives": [
        {
          "attributes": {
            "POSITION": 0,
            "NORMAL": 1,
            "TEXCOORD_0": 2
          },
          "indices": 3,
          "material": 0,
          "mode": 4
        }
      ]
    },
    {
      "name": "something1",
      "primitives": [
        {
          "attributes": {
            "POSITION": 4,
            "NORMAL": 5,
            "TEXCOORD_0": 6
          },
          "indices": 7,
          "material": 1,
          "mode": 4
        }
      ]
    },
    {
      "name": "something2",
      "primitives": [
        {
          "attributes": {
            "POSITION": 8,
            "NORMAL": 9,
            "TEXCOORD_0": 10
          },
          "indices": 11,
          "material": 2,
          "mode": 4
        }
      ]
    },
    {
      "name": "something3",
      "primitives": [
        {
          "attributes": {
            "POSITION": 12,
            "NORMAL": 13,
            "TEXCOORD_0": 14
          },
          "indices": 15,
          "material": 3,
          "mode": 4
        }
      ]
    },
    {
      "name": "something4",
      "primitives": [
        {
          "attributes": {
            "POSITION": 16,
            "NORMAL": 17,
            "TEXCOORD_0": 18
          },
          "indices": 19,
          "material": 4,
          "mode": 4
        }
      ]
    },
    {
      "name": "something5",
      "primitives": [
        {
          "attributes": {
            "POSITION": 20,
            "NORMAL": 21,
            "TEXCOORD_0": 22
          },
          "indices": 23,
          "material": 5,
          "mode": 4
        }
      ]
    },
    {
      "name": "something6",
      "primitives": [
        {
          "attributes": {
            "POSITION": 24,
            "NORMAL": 25,
            "TEXCOORD_0": 26
          },
          "indices": 27,
          "material": 6,
          "mode": 4
        }
      ]
    }
  ],
  "nodes": [
    {
      "name": "something",
      "children": [
        1,
        2,
        3,
        4,
        5,
        6,
        7
      ]
    },
    {
      "name": "something0",
      "mesh": 0
    },
    {
      "name": "something1",
      "mesh": 1
    },
    {
      "name": "something2",
      "mesh": 2
    },
    {
      "name": "something3",
      "mesh": 3
    },
    {
      "name": "something4",
      "mesh": 4
    },
    {
      "name": "something5",
      "mesh": 5
    },
    {
      "name": "something6",
      "mesh": 6
    }
  ],
  "scene": 0,
  "scenes": [
    {
      "nodes": [
        0
      ]
    }
  ]
}
