{
  "accessors": [
    {
      "name": "something0_0_positions",
      "componentType": 5126,
      "count": 1398,
      "min": [
        -0.04575223848223686,
        -0.16287153959274292,
        0.0001513018796686083
      ],
      "max": [
        0.04426685348153114,
        0.10067962110042572,
        0.19083638489246368
      ],
      "type": "VEC3",
      "bufferView": 0,
      "byteOffset": 0
    },
    {
      "name": "something0_0_normals",
      "componentType": 5126,
      "count": 1398,
      "min": [
        -1,
        -1,
        -1
      ],
      "max": [
        1,
        1,
        0.9997522234916687
      ],
      "type": "VEC3",
      "bufferView": 1,
      "byteOffset": 0
    },
    {
      "name": "something0_0_texcoords",
      "componentType": 5126,
      "count": 1398,
      "min": [
        0,
        0
      ],
      "max": [
        1,
        1
      ],
      "type": "VEC2",
      "bufferView": 2,
      "byteOffset": 0
    },
    {
      "name": "something0_0_indices",
      "componentType": 5123,
      "count": 2004,
      "min": [
        0
      ],
      "max": [
        1397
      ],
      "type": "SCALAR",
      "bufferView": 3,
      "byteOffset": 0
    },
    {
      "name": "something1_0_positions",
      "componentType": 5126,
      "count": 120,
      "min": [
        -0.02735113352537155,
        -0.1948430985212326,
        0.1376194953918457
      ],
      "max": [
        0.025865750387310982,
        -0.13791602849960327,
        0.18397969007492065
      ],
      "type": "VEC3",
      "bufferView": 0,
      "byteOffset": 16776
    },
    {
      "name": "something1_0_normals",
      "componentType": 5126,
      "count": 120,
      "min": [
        -0.9994422197341919,
        -0.997981071472168,
        -0.9953550696372986
      ],
      "max": [
        0.9999801516532898,
        0.07864910364151001,
        0.8760465979576111
      ],
      "type": "VEC3",
      "bufferView": 1,
      "byteOffset": 16776
    },
    {
      "name": "something1_0_texcoords",
      "componentType": 5126,
      "count": 120,
      "min": [
        0,
        0
      ],
      "max": [
        1,
        1
      ],
      "type": "VEC2",
      "bufferView": 2,
      "byteOffset": 11184
    },
    {
      "name": "something1_0_indices",
      "componentType": 5123,
      "count": 168,
      "min": [
        0
      ],
      "max": [
        119
      ],
      "type": "SCALAR",
      "bufferView": 3,
      "byteOffset": 4008
    }
  ],
  "asset": {
    "generator": "obj2gltf",
    "version": "2.0"
  },
  "buffers": [
    {
      "name": "sheep",
      "byteLength": 52920,
      "uri": "data:application/octet-stream;base64,"
    }
  ],
  "bufferViews": [
    {
      "name": "bufferView_0",
      "buffer": 0,
      "byteLength": 18216,
      "byteOffset": 0,
      "byteStride": 12,
      "target": 34962
    },
    {
      "name": "bufferView_1",
      "buffer": 0,
      "byteLength": 18216,
      "byteOffset": 18216,
      "byteStride": 12,
      "target": 34962
    },
    {
      "name": "bufferView_2",
      "buffer": 0,
      "byteLength": 12144,
      "byteOffset": 36432,
      "byteStride": 8,
      "target": 34962
    },
    {
      "name": "bufferView_3",
      "buffer": 0,
      "byteLength": 4344,
      "byteOffset": 48576,
      "target": 34963
    }
  ],
  "materials": [
    {
      "name": "material0",
      "pbrMetallicRoughness": {
        "baseColorFactor": [
          0.5,
          0.5,
          0.5,
          1
        ],
        "metallicFactor": 0,
        "roughnessFactor": 1
      },
      "emissiveFactor": [
        0,
        0,
        0
      ],
      "alphaMode": "OPAQUE",
      "doubleSided": false
    },
    {
      "name": "material1",
      "pbrMetallicRoughness": {
        "baseColorFactor": [
          0.5,
          0.5,
          0.5,
          1
        ],
        "metallicFactor": 0,
        "roughnessFactor": 1
      },
      "emissiveFactor": [
        0,
        0,
        0
      ],
      "alphaMode": "OPAQUE",
      "doubleSided": false
    }
  ],
  "meshes": [
    {
      "name": "something0",
      "primitives": [
        {
          "attributes": {
            "POSITION": 0,
            "NORMAL": 1,
            "TEXCOORD_0": 2
          },
          "indices": 3,
          "material": 0,
          "mode": 4
        }
      ]
    },
    {
      "name": "something1",
      "primitives": [
        {
          "attributes": {
            "POSITION": 4,
            "NORMAL": 5,
            "TEXCOORD_0": 6
          },
          "indices": 7,
          "material": 1,
          "mode": 4
        }
      ]
    }
  ],
  "nodes": [
    {
      "name": "something",
      "children": [
        1,
        2
      ]
    },
    {
      "name": "something0",
      "mesh": 0
    },
    {
      "name": "something1",
      "mesh": 1
    }
  ],
  "scene": 0,
  "scenes": [
    {
      "nodes": [
        0
      ]
    }
  ]
}
