{
    "asset" : {
        "generator" : "Khronos glTF Blender I/O v0.9.36",
        "version" : "2.0"
    },
    "scene" : 0,
    "scenes" : [
        {
            "name" : "Scene",
            "nodes" : [
                0,
                1,
                2
            ]
        }
    ],
    "nodes" : [
        {
            "name" : "Light",
            "rotation" : [
                0.17594920098781586,
                -0.015393029898405075,
                -0.7622316479682922,
                0.622742235660553
            ],
            "scale" : [
                0.14784473180770874,
                0.14784473180770874,
                0.14784473180770874
            ],
            "translation" : [
                2.3909878730773926,
                -0.06668758392333984,
                -0.3648800849914551
            ]
        },
        {
            "name" : "Camera",
            "rotation" : [
                0.04263255000114441,
                -0.43144649267196655,
                -0.4389219284057617,
                0.7870094776153564
            ],
            "scale" : [
                0.14784473180770874,
                0.14784473180770874,
                0.14784473180770874
            ],
            "translation" : [
                2.4430389404296875,
                1.1068483591079712,
                0.13527709245681763
            ]
        },
        {
            "mesh" : 0,
            "name" : "something",
            "rotation" : [
                -0.0028665722347795963,
                -0.5655592679977417,
                -0.0019658252131193876,
                0.8247002959251404
            ],
            "scale" : [
                0.14784473180770874,
                0.14784474670886993,
                0.14784474670886993
            ],
            "translation" : [
                1.3606113195419312,
                0.0880277156829834,
                -0.6129700541496277
            ]
        }
    ],
    "materials" : [
        {
            "emissiveFactor" : [
                0,
                0,
                0
            ],
            "name" : "material0",
            "pbrMetallicRoughness" : {
                "baseColorTexture" : {
                    "index" : 0,
                    "texCoord" : 0
                },
                "metallicFactor" : 0,
                "roughnessFactor" : 1
            }
        }
    ],
    "meshes" : [
        {
            "name" : "something0",
            "primitives" : [
                {
                    "attributes" : {
                        "POSITION" : 0,
                        "NORMAL" : 1,
                        "TEXCOORD_0" : 2
                    },
                    "indices" : 3,
                    "material" : 0
                }
            ]
        }
    ],
    "textures" : [
        {
            "source" : 0
        }
    ],
    "images" : [
        {
            "bufferView" : 4,
            "mimeType" : "image/png",
            "name" : "workshop"
        }
    ],
    "accessors" : [
        {
            "bufferView" : 0,
            "componentType" : 5126,
            "count" : 1482,
            "max" : [
                10.259766578674316,
                14.317246437072754,
                15.03448486328125
            ],
            "min" : [
                -10,
                -0.048271533101797104,
                -18.871110916137695
            ],
            "type" : "VEC3"
        },
        {
            "bufferView" : 1,
            "componentType" : 5126,
            "count" : 1482,
            "type" : "VEC3"
        },
        {
            "bufferView" : 2,
            "componentType" : 5126,
            "count" : 1482,
            "type" : "VEC2"
        },
        {
            "bufferView" : 3,
            "componentType" : 5123,
            "count" : 1482,
            "type" : "SCALAR"
        }
    ],
    "bufferViews" : [
        {
            "buffer" : 0,
            "byteLength" : 17784,
            "byteOffset" : 0
        },
        {
            "buffer" : 0,
            "byteLength" : 17784,
            "byteOffset" : 17784
        },
        {
            "buffer" : 0,
            "byteLength" : 11856,
            "byteOffset" : 35568
        },
        {
            "buffer" : 0,
            "byteLength" : 2964,
            "byteOffset" : 47424
        },
        {
            "buffer" : 0,
            "byteLength" : 423141,
            "byteOffset" : 50388
        }
    ],
    "buffers" : [
        {
            "byteLength" : 473532,
            "uri" : "data:application/octet-stream;base64,"
        }
    ]
}
